<?xml version="1.0" encoding="utf-8"?>
<!-- Generator: Adobe Illustrator 24.1.3, SVG Export Plug-In . SVG Version: 6.00 Build 0)  -->
<svg version="1.1" id="Layer_1" xmlns="http://www.w3.org/2000/svg" xmlns:xlink="http://www.w3.org/1999/xlink" x="0px" y="0px"
	 viewBox="0 0 87.2 87.2" style="enable-background:new 0 0 87.2 87.2;" xml:space="preserve">
<g>
	<path d="M19.8,42.9V21.6c0-0.8,0.6-1.4,1.4-1.4c0.8,0,1.4,0.6,1.4,1.4v21.3c0,4,2.6,7.6,6.2,8.7l1,0.3l-1.6,32.5
		c2,0.7,4,1.4,6.1,1.8l-1.6-34.3l1-0.3c3.7-1.1,6.2-4.7,6.2-8.7V21.6c0-0.8,0.6-1.4,1.4-1.4c0.8,0,1.4,0.6,1.4,1.4v21.3
		c0,4.8-2.9,9.2-7.1,11l1.6,32.9c2.1,0.3,4.2,0.5,6.4,0.5c4.4,0,8.6-0.7,12.6-1.9V64.5c0-0.8,0.6-1.4,1.4-1.4c0.8,0,1.4,0.6,1.4,1.4
		v19.8C60,84,61,83.5,62.1,83v-62c-7.6,2.6-11.3,26.1-12,42.1h2.2c0.8,0,1.4,0.6,1.4,1.4c0,0.8-0.6,1.4-1.4,1.4h-3.6
		c-0.4,0-0.7-0.1-1-0.4c-0.3-0.3-0.4-0.6-0.4-1c0.1-4.8,1.9-46.4,16.2-46.4c0.8,0,1.4,0.6,1.4,1.4v62.2c13.3-7.5,22.3-21.7,22.3-38
		C87.2,19.6,67.6,0,43.6,0S0,19.6,0,43.6c0,17.6,10.5,32.8,25.5,39.7L27,53.8C22.7,52,19.8,47.7,19.8,42.9z M35.5,21.3
		c0-0.5,0.4-0.9,0.9-0.9s0.9,0.4,0.9,0.9v22.9c0,0.5-0.4,0.9-0.9,0.9s-0.9-0.4-0.9-0.9V21.3z M30.4,21.3c0-0.5,0.4-0.9,0.9-0.9
		s0.9,0.4,0.9,0.9v22.9c0,0.5-0.4,0.9-0.9,0.9s-0.9-0.4-0.9-0.9V21.3z M25.2,21.3c0-0.5,0.4-0.9,0.9-0.9c0.5,0,0.9,0.4,0.9,0.9v22.9
		c0,0.5-0.4,0.9-0.9,0.9c-0.5,0-0.9-0.4-0.9-0.9V21.3z"/>
</g>
</svg>
