<?xml version="1.0" encoding="utf-8"?>
<!-- Generator: Adobe Illustrator 24.1.3, SVG Export Plug-In . SVG Version: 6.00 Build 0)  -->
<svg version="1.1" id="Layer_1" xmlns="http://www.w3.org/2000/svg" xmlns:xlink="http://www.w3.org/1999/xlink" x="0px" y="0px"
	 viewBox="0 0 68 62.1" style="enable-background:new 0 0 68 62.1;" xml:space="preserve">
<style type="text/css">
	.st0{fill-rule:evenodd;clip-rule:evenodd;}
</style>
<path class="st0" d="M2.9,31C-1.8,23.1-0.8,12.8,6,6c7.7-7.7,19.9-8,28-0.9C42.1-2,54.3-1.7,62,6c6.7,6.7,7.8,17,3.1,25H52.2
	l-2.4-4.9c-0.8-1.6-3.1-1.4-3.7,0.2L43.3,34l-1.8-2.2c-1-1.3-3-0.9-3.5,0.7L35.6,41L31,12.7c-0.4-2.2-3.5-2.3-3.9-0.1l-3.7,17.7
	l-2.5-6c-0.7-1.7-3.1-1.6-3.7,0.1L14.6,31H2.9z M6,35C6,35,6,35,6,35l26.6,26.5c0.8,0.8,2,0.8,2.8,0L61.9,35H51
	c-0.8,0-1.5-0.4-1.8-1.1l-0.9-1.8l-2.4,6.6c-0.5,1.5-2.5,1.8-3.4,0.6l-1.6-2l-3.9,13.3c-0.6,2-3.6,1.9-3.9-0.2L28.8,24L26,37.4
	c-0.4,1.9-3,2.2-3.8,0.4l-3.1-7.3l-1.2,3.3c-0.3,0.8-1,1.3-1.9,1.3H6z"/>
</svg>
