<?xml version="1.0" encoding="utf-8"?>
<!-- Generator: Adobe Illustrator 24.1.3, SVG Export Plug-In . SVG Version: 6.00 Build 0)  -->
<svg version="1.1" id="Layer_1" xmlns="http://www.w3.org/2000/svg" xmlns:xlink="http://www.w3.org/1999/xlink" x="0px" y="0px"
	 viewBox="0 0 75 62.2" style="enable-background:new 0 0 75 62.2;" xml:space="preserve">
<g transform="matrix( 1, 0, 0, 1, 0,0) ">
	<g>
		<g id="a">
			<path d="M75,48V17.2c-1.4,2.5-4.3,4.7-8.9,6.6v15.7c0,0.3-0.1,0.5-0.3,0.7c-0.2,0.2-0.4,0.2-0.7,0.3c-0.2,0-0.4-0.1-0.6-0.3
				c-0.2-0.2-0.3-0.4-0.3-0.7v-15c-3.7,1.4-7.8,2.5-12.3,3.2c0.1,0.1,0.1,0.2,0.1,0.3v15.2c0,0.2-0.1,0.4-0.3,0.7
				c-0.2,0.2-0.4,0.3-0.7,0.3c-0.2,0-0.4-0.1-0.6-0.3c-0.2-0.2-0.2-0.4-0.3-0.7V28.1c-3.4,0.5-7,0.7-10.9,0.8v26.7
				c0,0.2-0.1,0.5-0.3,0.7c-0.2,0.2-0.4,0.3-0.7,0.3c-0.2,0-0.5-0.1-0.6-0.3c-0.2-0.2-0.3-0.4-0.3-0.7V28.9c-2.5,0-4.9-0.1-7.3-0.2
				h-0.1c-1.3-0.1-2.6-0.3-4-0.4v14.6c0,0.3-0.1,0.5-0.3,0.7c-0.2,0.2-0.4,0.3-0.6,0.3c-0.2,0-0.5-0.1-0.7-0.3
				c-0.2-0.2-0.3-0.4-0.3-0.7V28c-3.4-0.5-6.7-1.2-9.7-2.1c-0.9-0.3-1.7-0.6-2.5-0.8v14.5c0,0.3-0.1,0.5-0.3,0.7
				c-0.2,0.2-0.4,0.2-0.7,0.3c-0.3,0-0.5-0.1-0.7-0.3C10.1,40,10,39.8,10,39.6V24.3c-5.2-2-8.5-4.4-10-7.1v30.5
				c0,4,3.7,7.4,10.9,10.1c5.5,2.2,11.9,3.6,19.1,4.1c2.4,0.2,4.9,0.3,7.4,0.3c10.4,0,19.2-1.5,26.5-4.4C71.2,55.2,74.9,51.9,75,48
				 M74.1,13.6v-0.2c-0.1-3.6-3.6-6.7-10.3-9.3C56.5,1.4,47.8,0,37.6,0h-0.1c-6.2,0-11.4,0.9-15.8,2.7c-3.9,1.6-6,3.5-6.1,5.7
				c0,0,0,0.1,0,0.1v0.1c0,0.2,0.1,0.4,0.2,0.6v0.1c0.5,1.8,2.5,3.4,5.9,4.8c2.5,1,5.2,1.7,8.3,2.2c0.1,0,0.1,0,0.2,0
				c2.3,0.3,4.7,0.4,7.4,0.4c0.2,0,0.3,0,0.5,0c4.2,0,7.7-0.5,10.5-1.6c2.4-1,3.7-2.1,3.9-3.2c0-0.1,0-0.1,0-0.2
				c-0.1-1.2-1.4-2.3-3.9-3.2c-2.9-1.2-6.4-1.8-10.5-1.8c-2.9,0-5.4,0.3-7.7,0.9c-0.1,0-0.2,0-0.3,0c-0.2,0-0.4,0-0.5-0.1
				c-0.3-0.2-0.4-0.4-0.4-0.6c-0.1-0.2-0.1-0.5,0.1-0.8c0.1-0.2,0.3-0.3,0.5-0.3c2.5-0.6,5.2-1,8.2-1c4.4,0,8.1,0.6,11.3,1.9
				c3.5,1.3,5.2,3,5,5c0,0.1,0,0.2,0,0.3v0.1c-0.1,1.9-1.8,3.5-5,4.8c-3.1,1.1-6.9,1.7-11.3,1.7c-0.1,0-0.3,0-0.5,0
				c-2.8,0-5.3-0.1-7.7-0.5c-3.3-0.5-6.3-1.3-8.9-2.4l0.1,0.1c-3.2-1.3-5.3-2.8-6.4-4.4V24c0.1,0,0.2,0,0.3,0.1
				c4.5,1.3,9.5,2.2,15.1,2.6c2.3,0.1,4.8,0.2,7.4,0.2c10.2,0,19-1.4,26.2-4.1C70.4,20.3,73.8,17.3,74.1,13.6z"/>
		</g>
	</g>
</g>
</svg>
