<svg width="232" height="61" viewBox="0 0 232 61" fill="none" xmlns="http://www.w3.org/2000/svg">
<rect width="133" height="61" rx="5" fill="#FFB937"/>
<path d="M30.3418 44H24.9102V32.9082H14.7324V44H9.2832V18.3008H14.7324V28.373H24.9102V18.3008H30.3418V44Z" fill="black"/>
<path d="M44.5625 27.793C43.4258 27.793 42.5352 28.1562 41.8906 28.8828C41.2461 29.5977 40.877 30.6172 40.7832 31.9414H48.3066C48.2832 30.6172 47.9375 29.5977 47.2695 28.8828C46.6016 28.1562 45.6992 27.793 44.5625 27.793ZM45.3184 44.3516C42.1543 44.3516 39.6816 43.4785 37.9004 41.7324C36.1191 39.9863 35.2285 37.5137 35.2285 34.3145C35.2285 31.0215 36.0488 28.4785 37.6895 26.6855C39.3418 24.8809 41.6211 23.9785 44.5273 23.9785C47.3047 23.9785 49.4668 24.7695 51.0137 26.3516C52.5605 27.9336 53.334 30.1191 53.334 32.9082V35.5098H40.6602C40.7188 37.0332 41.1699 38.2227 42.0137 39.0781C42.8574 39.9336 44.041 40.3613 45.5645 40.3613C46.748 40.3613 47.8672 40.2383 48.9219 39.9922C49.9766 39.7461 51.0781 39.3535 52.2266 38.8145V42.9629C51.2891 43.4316 50.2871 43.7773 49.2207 44C48.1543 44.2344 46.8535 44.3516 45.3184 44.3516Z" fill="black"/>
<path d="M70.1738 44L69.1367 41.3281H68.9961C68.0938 42.4648 67.1621 43.2559 66.2012 43.7012C65.252 44.1348 64.0098 44.3516 62.4746 44.3516C60.5879 44.3516 59.0996 43.8125 58.0098 42.7344C56.9316 41.6562 56.3926 40.1211 56.3926 38.1289C56.3926 36.043 57.1191 34.5078 58.5723 33.5234C60.0371 32.5273 62.2402 31.9766 65.1816 31.8711L68.5918 31.7656V30.9043C68.5918 28.9121 67.5723 27.916 65.5332 27.916C63.9629 27.916 62.1172 28.3906 59.9961 29.3398L58.2207 25.7188C60.4824 24.5352 62.9902 23.9434 65.7441 23.9434C68.3809 23.9434 70.4023 24.5176 71.8086 25.666C73.2148 26.8145 73.918 28.5605 73.918 30.9043V44H70.1738ZM68.5918 34.8945L66.5176 34.9648C64.959 35.0117 63.7988 35.293 63.0371 35.8086C62.2754 36.3242 61.8945 37.1094 61.8945 38.1641C61.8945 39.6758 62.7617 40.4316 64.4961 40.4316C65.7383 40.4316 66.7285 40.0742 67.4668 39.3594C68.2168 38.6445 68.5918 37.6953 68.5918 36.5117V34.8945Z" fill="black"/>
<path d="M84.8164 44H79.4551V16.6484H84.8164V44Z" fill="black"/>
<path d="M98.7383 40.0801C99.6758 40.0801 100.801 39.875 102.113 39.4648V43.4551C100.777 44.0527 99.1367 44.3516 97.1914 44.3516C95.0469 44.3516 93.4824 43.8125 92.498 42.7344C91.5254 41.6445 91.0391 40.0156 91.0391 37.8477V28.373H88.4727V26.1055L91.4258 24.3125L92.9727 20.1641H96.4004V24.3477H101.902V28.373H96.4004V37.8477C96.4004 38.6094 96.6113 39.1719 97.0332 39.5352C97.4668 39.8984 98.0352 40.0801 98.7383 40.0801Z" fill="black"/>
<path d="M124.244 44H118.883V32.5215C118.883 29.6855 117.828 28.2676 115.719 28.2676C114.219 28.2676 113.135 28.7773 112.467 29.7969C111.799 30.8164 111.465 32.4688 111.465 34.7539V44H106.104V16.6484H111.465V22.2207C111.465 22.6543 111.424 23.6738 111.342 25.2793L111.219 26.8613H111.5C112.695 24.9395 114.594 23.9785 117.195 23.9785C119.504 23.9785 121.256 24.5996 122.451 25.8418C123.646 27.084 124.244 28.8652 124.244 31.1855V44Z" fill="black"/>
<path d="M152.574 44H149.586V20.9551H141.447V18.3008H160.713V20.9551H152.574V44Z" fill="white"/>
<path d="M172.947 24.3828C173.803 24.3828 174.57 24.4531 175.25 24.5938L174.846 27.3008C174.049 27.125 173.346 27.0371 172.736 27.0371C171.178 27.0371 169.842 27.6699 168.729 28.9355C167.627 30.2012 167.076 31.7773 167.076 33.6641V44H164.158V24.7344H166.566L166.9 28.3027H167.041C167.756 27.0488 168.617 26.082 169.625 25.4023C170.633 24.7227 171.74 24.3828 172.947 24.3828Z" fill="white"/>
<path d="M190.701 44L190.121 41.2578H189.98C189.02 42.4648 188.059 43.2852 187.098 43.7188C186.148 44.1406 184.959 44.3516 183.529 44.3516C181.619 44.3516 180.119 43.8594 179.029 42.875C177.951 41.8906 177.412 40.4902 177.412 38.6738C177.412 34.7832 180.523 32.7441 186.746 32.5566L190.016 32.4512V31.2559C190.016 29.7441 189.688 28.6309 189.031 27.916C188.387 27.1895 187.35 26.8262 185.92 26.8262C184.314 26.8262 182.498 27.3184 180.471 28.3027L179.574 26.0703C180.523 25.5547 181.561 25.1504 182.686 24.8574C183.822 24.5645 184.959 24.418 186.096 24.418C188.393 24.418 190.092 24.9277 191.193 25.9473C192.307 26.9668 192.863 28.6016 192.863 30.8516V44H190.701ZM184.109 41.9434C185.926 41.9434 187.35 41.4453 188.381 40.4492C189.424 39.4531 189.945 38.0586 189.945 36.2656V34.5254L187.027 34.6484C184.707 34.7305 183.031 35.0938 182 35.7383C180.98 36.3711 180.471 37.3613 180.471 38.709C180.471 39.7637 180.787 40.5664 181.42 41.1172C182.064 41.668 182.961 41.9434 184.109 41.9434Z" fill="white"/>
<path d="M206.592 44.3516C203.803 44.3516 201.641 43.4961 200.105 41.7852C198.582 40.0625 197.82 37.6309 197.82 34.4902C197.82 31.2676 198.594 28.7773 200.141 27.0195C201.699 25.2617 203.914 24.3828 206.785 24.3828C207.711 24.3828 208.637 24.4824 209.562 24.6816C210.488 24.8809 211.215 25.1152 211.742 25.3848L210.846 27.8633C210.201 27.6055 209.498 27.3945 208.736 27.2305C207.975 27.0547 207.301 26.9668 206.715 26.9668C202.801 26.9668 200.844 29.4629 200.844 34.4551C200.844 36.8223 201.318 38.6387 202.268 39.9043C203.229 41.1699 204.646 41.8027 206.521 41.8027C208.127 41.8027 209.773 41.457 211.461 40.7656V43.3496C210.172 44.0176 208.549 44.3516 206.592 44.3516Z" fill="white"/>
<path d="M218.932 34.1387C219.436 33.4238 220.203 32.4863 221.234 31.3262L227.457 24.7344H230.92L223.115 32.9434L231.465 44H227.932L221.129 34.8945L218.932 36.793V44H216.049V16.6484H218.932V31.1504C218.932 31.7949 218.885 32.791 218.791 34.1387H218.932Z" fill="white"/>
</svg>
