<?xml version="1.0" encoding="utf-8"?>
<!-- Generator: Adobe Illustrator 24.1.3, SVG Export Plug-In . SVG Version: 6.00 Build 0)  -->
<svg version="1.1" id="Layer_1" xmlns="http://www.w3.org/2000/svg" xmlns:xlink="http://www.w3.org/1999/xlink" x="0px" y="0px"
	 viewBox="0 0 83.6 83.5" style="enable-background:new 0 0 83.6 83.5;" xml:space="preserve">
<g>
	<path d="M83.4,41.9c0,8.9,0.1,17.8,0,26.6c-0.1,6.3-4.3,12.1-10.6,14.1c-1.9,0.6-3.8,0.9-5.8,0.9c-16.9,0-33.7,0-50.6,0
		c-6.2,0-11-2.5-14.2-7.9c-1.3-2.2-2.1-4.6-2.1-7.2c0-10.7,0-21.4,0-32.1c0-7-0.2-14.1,0.1-21.1C0.4,8.8,3.6,4.1,9.6,1.4
		C11.5,0.5,13.5,0,15.5,0c17.6,0,35.2-0.1,52.9,0c4.4,0,8.2,1.8,11.1,5.1c2.8,3.1,4.1,6.8,4.1,10.9C83.4,24.8,83.4,33.3,83.4,41.9
		L83.4,41.9z M41.7,38.7c5,0,9.9,0,14.9,0c0.8,0,1.3-0.2,1.9-0.9c3.6-4.6,7.3-9.1,10.9-13.6c1.3-1.6,1.3-1.6-0.2-3.2
		c-3.7-3.7-7.9-6.5-12.8-8.4C52.3,11,48,9.9,43.6,9.9c-3,0-6.1,0-9.1,0.6C31.6,11,28.7,12,26,13.2c-4.8,1.9-8.9,4.9-12.4,8.7
		c-0.6,0.7-0.5,1.1,0,1.7c3.9,4.8,7.7,9.6,11.5,14.4c0.4,0.6,0.9,0.7,1.6,0.7C31.7,38.6,36.7,38.7,41.7,38.7z"/>
	<path d="M54.2,17.3c-0.2,1-0.4,2.1-0.7,3.1c-0.4,1.8-0.8,3.6-1.2,5.4c-0.5,2.3-1.1,4.5-1.6,6.8c-0.2,0.7-0.4,1.5-0.6,2.2
		c-0.1,0.3-0.4,0.6-0.6,0.6c-2.3,0-4.7,0-7,0c-0.1,0-0.2-0.1-0.5-0.2c4-6,7.9-12,11.9-18C54,17.2,54.1,17.2,54.2,17.3z"/>
</g>
</svg>
