<svg width="34" height="37" viewBox="0 0 34 37" fill="none" xmlns="http://www.w3.org/2000/svg">
<path d="M26.2179 9.62068C26.2179 7.0691 25.2025 4.62206 23.3958 2.81782C21.5891 1.01359 19.1396 0 16.5845 0C14.0294 0 11.5784 1.01359 9.77169 2.81782C7.96496 4.62206 6.94958 7.0691 6.94958 9.62068C6.94958 12.1722 7.96496 14.6193 9.77169 16.4235C11.5784 18.2278 14.0294 19.2414 16.5845 19.2414C19.1396 19.2414 21.5891 18.2278 23.3958 16.4235C25.2025 14.6193 26.2179 12.1722 26.2179 9.62068V9.62068Z" fill="#FFB937"/>
<path d="M10.3534 18.4927C9.16424 18.0684 7.88089 17.9858 6.64706 18.2543C5.41323 18.5228 4.27884 19.1317 3.37429 20.0116C1.60516 21.9688 0.508568 24.4388 0.24294 27.062C-0.155266 29.3166 -0.0631276 31.6303 0.51334 33.8462C0.748287 34.7493 1.27689 35.5491 2.01608 36.1199C2.75527 36.6907 3.66291 37.0002 4.59731 37H28.5728C29.5072 37.0003 30.4163 36.6907 31.1555 36.1199C31.8948 35.5491 32.4233 34.7494 32.6583 33.8462C33.2347 31.6303 33.3269 29.3166 32.9287 27.062C32.6631 24.4388 31.5663 21.9688 29.7973 20.0116C28.8928 19.1317 27.7584 18.5228 26.5246 18.2543C25.2907 17.9858 24.0058 18.0684 22.8167 18.4927C20.9912 19.7711 18.8162 20.457 16.5866 20.457C14.357 20.457 12.1819 19.7711 10.3565 18.4927H10.3534Z" fill="#FFB937"/>
</svg>
