<svg width="108" height="109" viewBox="0 0 108 109" fill="none" xmlns="http://www.w3.org/2000/svg">
<path d="M52.5516 0.0120706C38.4382 0.311858 25.0094 6.17339 15.1742 16.3278C5.33903 26.4821 -0.111323 40.1122 0.00186114 54.2671C-0.0571673 61.3743 1.28847 68.423 3.96001 75.0063C6.63155 81.5896 10.5773 87.5772 15.5684 92.6239C20.5595 97.6705 26.4972 101.676 33.0401 104.41C39.583 107.143 46.6001 108.551 53.6882 108.551C60.7763 108.551 67.7934 107.143 74.3362 104.41C80.8791 101.676 86.8168 97.6705 91.808 92.6239C96.7991 87.5772 100.745 81.5896 103.416 75.0063C106.088 68.423 107.434 61.3743 107.374 54.2671C107.432 47.0653 106.048 39.9251 103.305 33.2693C100.561 26.6135 96.5126 20.5773 91.4006 15.5183C86.2886 10.4593 80.2178 6.48029 73.5446 3.81679C66.8715 1.15328 59.7324 -0.140421 52.5516 0.0120706V0.0120706ZM53.2152 27.2779C55.6286 27.2146 58.0299 27.6374 60.2774 28.5215C62.525 29.4056 64.5749 30.7331 66.3017 32.425C68.0284 34.117 69.3988 36.1392 70.3321 38.3719C71.2654 40.6047 71.7422 43.0024 71.7347 45.4233C71.7347 50.2227 69.8339 54.8255 66.4495 58.2192C63.0651 61.6128 58.4744 63.5193 53.6882 63.5193C48.9019 63.5193 44.3112 61.6128 40.9268 58.2192C37.5424 54.8255 35.6416 50.2227 35.6416 45.4233C35.6271 40.6962 37.4585 36.151 40.7429 32.76C44.0273 29.3689 48.5026 27.4014 53.2152 27.2779V27.2779ZM69.6949 62.3236C71.3653 62.2751 73.0285 62.5633 74.5859 63.171C76.1433 63.7786 77.5624 64.6934 78.7608 65.8611C82.0927 69.5683 84.1571 74.2452 84.6537 79.2108C85.6002 84.5658 85.0941 90.0774 83.1887 95.1691C74.605 101.394 64.2816 104.745 53.6882 104.745C43.0948 104.745 32.7713 101.394 24.1876 95.1691C22.2822 90.0774 21.7761 84.5658 22.7226 79.2108C23.2192 74.2452 25.2836 69.5683 28.6155 65.8611C30.2818 64.2383 32.3679 63.1135 34.6365 62.6131C36.9051 62.1127 39.2674 62.2566 41.459 63.0285C45.0472 65.5349 49.3152 66.8785 53.6882 66.8785C58.0612 66.8785 62.3291 65.5349 65.9174 63.0285C67.1327 62.5997 68.407 62.3618 69.6949 62.3236V62.3236Z" fill="black"/>
</svg>
